<?xml version="1.0" encoding="UTF-8" standalone="no"?>
<!-- Created with Inkscape (http://www.inkscape.org/) -->

<svg
   width="3635.8418"
   height="3635.8413"
   viewBox="0 0 961.98314 961.98304"
   version="1.1"
   id="svg5"
   sodipodi:docname="mhmdhrts_45.svg"
   inkscape:version="1.4 (86a8ad7, 2024-10-11)"
   xmlns:inkscape="http://www.inkscape.org/namespaces/inkscape"
   xmlns:sodipodi="http://sodipodi.sourceforge.net/DTD/sodipodi-0.dtd"
   xmlns="http://www.w3.org/2000/svg"
   xmlns:svg="http://www.w3.org/2000/svg">
  <sodipodi:namedview
     id="namedview1"
     pagecolor="#ffffff"
     bordercolor="#999999"
     borderopacity="1"
     inkscape:showpageshadow="0"
     inkscape:pageopacity="0"
     inkscape:pagecheckerboard="0"
     inkscape:deskcolor="#d1d1d1"
     inkscape:zoom="0.11693078"
     inkscape:cx="1757.45"
     inkscape:cy="2133.741"
     inkscape:window-width="1920"
     inkscape:window-height="1051"
     inkscape:window-x="-9"
     inkscape:window-y="-9"
     inkscape:window-maximized="1"
     inkscape:current-layer="svg5" />
  <defs
     id="defs2" />
  <path
     d="m -322.23256,341.09523 15.71856,15.71875 31.43732,-31.43732 15.71873,15.71853 -31.43732,31.43734 15.71855,15.71875 31.43734,-31.43732 15.71873,-15.71875 -47.15605,-47.15605 -15.71853,15.71873 z m 53.44336,-53.44357 31.4373,31.4375 15.71875,15.71855 31.43728,-31.43728 6.2875,6.2875 -62.87456,62.87458 15.71853,15.71873 62.87457,-62.87456 15.71875,-15.71877 -22.00623,-22.00602 6.28748,-6.2875 128.893127,128.89294 15.718588,-15.71857 31.4374799,-31.4373 -15.7187298,-15.71875 -31.4373181,-31.4373 -15.71875,15.71875 -15.718547,15.71855 -6.28748,-6.2875 15.718547,-15.71853 15.71875,-15.71877 -69.162097,-69.16207 -15.71875,15.71875 53.44353,53.44332 -15.71873,15.71875 -59.73085,-59.73104 31.4373,-31.4373 -15.71875,-15.71855 -31.4373,-31.4373 -15.71856,15.71857 -15.71873,15.71873 -15.71877,15.71857 31.4375,31.4373 -6.2875,6.28748 -31.4373,-31.43728 -15.71875,15.71855 -15.71853,15.71873 z m 31.43732,2.1e-4 15.71871,-15.71873 15.71855,15.71875 -15.71853,15.71852 z m 53.44353,-53.44355 15.71854,-15.71853 15.71873,15.71853 -15.71873,15.71875 z m -84.88085,160.33046 53.44353,53.44335 15.71855,15.71875 100.599612,-100.5994 -15.718772,-15.71877 -15.71873,-15.71873 -15.71857,-15.71855 -78.59332,78.59333 15.71877,15.71855 62.87455,-62.87458 15.71855,15.71875 -69.16209,69.16208 -53.44333,-53.44353 z m 75.44958,75.44957 31.43729,31.43732 15.71875,15.71853 69.16212,-69.16212 -15.718548,-15.71852 -31.437502,-31.43752 -15.71855,15.71875 31.4373,31.43731 -37.7248,37.72482 -31.43731,-31.43732 z m 28.69349,-28.69349 11.78891,11.78892 11.78891,-11.7889 -11.78891,-11.78893 z m 56.18735,-56.18735 31.4373,31.43732 -9.43123,9.43123 15.71875,15.71852 25.149777,-25.14977 -15.718547,-15.71853 -31.437298,-31.43752 z m -48.76745,78.63279 11.78831,11.7883 11.78891,-11.78891 -11.78831,-11.7883 z m 14.93266,-14.93266 11.78831,11.7883 11.78913,-11.78893 -11.78832,-11.7885 z m 87.278157,-85.70618 15.71873,-15.71875 15.718568,15.71877 -15.718548,15.71853 z"
     style="fill:#ffffff;fill-opacity:0.05;stroke:none;stroke-width:1.85842;stroke-linejoin:round;stroke-miterlimit:10.7;paint-order:fill markers stroke"
     id="path1" />
  <path
     d="m -152.47087,171.3337 15.71856,15.71877 31.4373,-31.43731 15.718752,15.71854 -31.437302,31.43732 15.71853,15.71873 31.43732,-31.4373 15.71875,-15.71875 -47.15605,-47.15602 -15.71855,15.71873 z m 53.443362,-53.44354 31.437298,31.43752 15.71875,15.71852 31.437297,-31.43729 6.2875,6.2875 L -77.021258,202.771 -61.30271,218.48975 1.5718851,155.61518 17.290635,139.89641 -4.7156149,117.89036 1.5718649,111.60288 130.46501,240.49582 146.18358,224.77725 177.62108,193.33995 161.90235,177.6212 130.46501,146.18389 114.74626,161.90264 99.02773,177.62118 92.740251,171.3337 108.4588,155.61518 124.17755,139.89641 55.015433,70.73431 39.296683,86.45306 92.74023,139.89641 77.021501,155.61516 17.290635,95.884108 48.727933,64.44681 33.009203,48.728262 1.5718851,17.290945 -14.146663,33.009512 l -15.71875,15.71873 -15.71877,15.718568 31.43752,31.437318 -6.2875,6.287482 -31.437297,-31.4373 -15.71877,15.718548 -15.718528,15.718752 z m 31.437298,2e-4 15.71875,-15.71875 15.718547,15.71877 -15.718547,15.71853 z M -14.146663,64.44681 1.5718851,48.728262 17.290635,64.44681 1.5719053,80.16556 Z m -84.880845,160.33044 53.443548,53.44337 15.718547,15.71875 100.599616,-100.5994 -15.71877,-15.71877 -15.71875,-15.71875 -15.718548,-15.71854 -78.593345,78.59334 15.71875,15.71855 62.874595,-62.8746 15.718548,15.71877 -69.162096,69.16208 -53.443345,-53.44355 z m 75.449575,75.4496 L 7.8593851,331.66416 23.578135,347.38271 92.74023,278.2206 77.021703,262.50205 45.584203,231.06457 29.865635,246.7833 61.302953,278.22062 23.578155,315.94541 -7.8591626,284.5081 Z M 5.1155373,271.53336 16.904468,283.32229 28.693359,271.53338 16.904448,259.74445 Z M 61.302913,215.346 l 31.437317,31.43732 -9.43125,9.43125 15.71875,15.71853 25.1498,-25.1498 -15.71855,-15.71853 -31.437297,-31.43752 z m -48.76745,78.63279 11.788304,11.78833 11.788911,-11.78891 -11.788304,-11.78831 z m 14.932661,-14.93264 11.788304,11.78831 11.789133,-11.78894 -11.788324,-11.7885 z m 87.278156,-85.70622 15.71873,-15.71873 15.71857,15.71877 -15.71853,15.71853 z"
     style="fill:#ffffff;fill-opacity:0.05;stroke:none;stroke-width:1.85842;stroke-linejoin:round;stroke-miterlimit:10.7;paint-order:fill markers stroke"
     id="path5" />
  <path
     d="m -491.99425,510.85692 15.71854,15.71875 31.43732,-31.4373 15.71873,15.71853 -31.4373,31.43732 15.71855,15.71875 31.43732,-31.4373 15.71873,-15.71875 -47.15605,-47.15604 -15.71853,15.71872 z m 53.44334,-53.44354 31.4373,31.43749 15.71875,15.71855 31.4373,-31.43727 6.2875,6.2875 -62.87458,62.87457 15.71853,15.71873 62.87457,-62.87458 15.71877,-15.71874 -22.00625,-22.00605 6.28748,-6.28748 128.89315,128.89294 15.71856,-15.71859 31.4375,-31.43728 -15.71875,-15.71875 -31.43729,-31.43732 -15.71877,15.71877 -15.71853,15.71853 -6.2875,-6.28748 15.71855,-15.71855 15.71875,-15.71874 -69.1621,-69.1621 -15.71875,15.71877 53.44355,53.44333 -15.71875,15.71874 -59.73085,-59.73104 31.4373,-31.4373 -15.71875,-15.71855 -31.4373,-31.4373 -15.71854,15.71855 -15.71875,15.71875 -15.71877,15.71857 31.4375,31.4373 -6.28748,6.28748 -31.4373,-31.4373 -15.71877,15.71857 -15.71851,15.71871 z m 31.43732,2e-4 15.71873,-15.71873 15.71853,15.71873 -15.71853,15.71852 z m 53.44353,-53.44355 15.71854,-15.71855 15.71875,15.71855 -15.71875,15.71875 z m -84.88085,160.33044 53.44355,53.44335 15.71855,15.71875 100.59959,-100.5994 -15.71875,-15.71875 -15.71875,-15.71873 -15.71855,-15.71857 -78.59334,78.59335 15.71877,15.71855 62.87457,-62.87458 15.71853,15.71873 -69.16207,69.1621 -53.44333,-53.44355 z m 75.4496,75.44958 31.43729,31.43731 15.71875,15.71855 69.1621,-69.16211 -15.71853,-15.71855 -31.43752,-31.4375 -15.71855,15.71875 31.4373,31.43732 -37.7248,37.72479 -31.43729,-31.43731 z m 28.69347,-28.69347 11.78891,11.78891 11.78891,-11.78889 -11.78891,-11.78894 z m 56.18735,-56.18736 31.43732,31.43732 -9.43125,9.43123 15.71875,15.71853 25.14978,-25.14978 -15.71853,-15.71855 -31.43732,-31.4375 z m -48.76745,78.63279 11.78831,11.78831 11.78891,-11.78892 -11.78831,-11.7883 z m 14.93266,-14.93266 11.78831,11.7883 11.78913,-11.78893 -11.7883,-11.7885 z m 87.27816,-85.70618 15.71875,-15.71875 15.71854,15.71875 -15.71854,15.71855 z"
     style="fill:#ffffff;fill-opacity:0.05;stroke:none;stroke-width:1.85842;stroke-linejoin:round;stroke-miterlimit:10.7;paint-order:fill markers stroke"
     id="path6" />
  <path
     d="m -130.46485,532.86313 15.71855,15.71875 31.43732,-31.4373 15.718729,15.71853 -31.437297,31.43732 15.718547,15.71875 31.437318,-31.4373 15.71875,-15.71877 -47.156047,-47.15605 -15.718568,15.71877 z m 53.44337,-53.44357 31.437297,31.4375 15.71875,15.71855 31.4372777,-31.43728 6.2874999,6.28752 -62.8745956,62.87458 15.718548,15.71875 62.874595,-62.8746 15.71875,-15.71875 -22.00625,-22.00604 6.2875,-6.28748 128.893128,128.89292 15.71856,-15.71857 31.4375,-31.4373 -15.71875,-15.71873 -31.43729,-31.43732 -15.71877,15.71877 -15.71853,15.71853 -6.2875,-6.28748 15.71855,-15.71855 15.71875,-15.71875 -69.16208,-69.16209 -15.71877,15.71875 53.44355,53.44334 -15.718752,15.71873 -59.730825,-59.73102 31.437277,-31.4373 -15.71875,-15.71855 -31.437298,-31.4373 -15.7185474,15.71855 -15.7187499,15.71875 -15.7187707,15.71857 31.4375004,31.43728 -6.2874797,6.2875 -31.4372977,-31.4373 -15.71875,15.71855 -15.718527,15.71873 z m 31.437297,2.1e-4 15.71873,-15.71871 15.718548,15.71873 -15.718528,15.71852 z m 53.4435479,-53.44353 15.7185271,-15.71855 15.71875,15.71855 -15.71875,15.71873 z M -77.021501,586.30668 -23.577953,639.75003 -7.8594053,655.46878 92.74019,554.86938 77.02144,539.15063 61.30269,523.43188 45.584142,507.71333 l -78.593345,78.59335 15.71875,15.71855 62.874595,-62.87458 15.718548,15.71873 -69.1620953,69.1621 -53.4433457,-53.44355 z m 75.4495754,75.4496 31.4373176,31.43729 15.71873,15.71855 L 114.74624,639.75 99.02771,624.03146 67.59019,592.59396 51.871642,608.31271 83.30896,639.75 45.584142,677.47482 14.146845,646.0375 Z m 28.6934906,-28.6935 11.78891,11.78894 11.788931,-11.78894 -11.788931,-11.78891 z m 56.187355,-56.18735 31.43732,31.4373 -9.43125,9.43125 15.71877,15.71852 25.14978,-25.14977 -15.71855,-15.71855 -31.43732,-31.4375 z m -48.76745,78.63279 11.788304,11.78831 11.788911,-11.78892 -11.788304,-11.7883 z m 14.932661,-14.93266 11.788304,11.7883 11.789133,-11.78893 -11.788304,-11.7885 z m 87.278159,-85.7062 15.71875,-15.71873 15.71854,15.71875 -15.71854,15.71855 z"
     style="fill:#ffffff;fill-opacity:0.05;stroke:none;stroke-width:1.85842;stroke-linejoin:round;stroke-miterlimit:10.7;paint-order:fill markers stroke"
     id="path7" />
  <path
     d="m 39.296845,363.10142 15.718568,15.71877 31.437297,-31.43732 15.71877,15.71855 -31.437317,31.43732 15.718547,15.71875 31.4373,-31.43732 15.71875,-15.71875 -47.15605,-47.15603 -15.718547,15.71873 z m 53.443365,-53.44355 31.4373,31.43752 15.71875,15.71853 31.4373,-31.4373 6.2875,6.28752 -62.8746,62.87458 15.71855,15.71877 62.87459,-62.8746 15.71875,-15.71875 -22.00625,-22.00606 6.28748,-6.28748 128.89317,128.89294 15.71856,-15.71857 31.4375,-31.4373 -15.71875,-15.71873 -31.43731,-31.43734 -15.71875,15.71877 -15.71855,15.71853 -6.28748,-6.28748 15.71855,-15.71853 15.71875,-15.71875 -69.16212,-69.16211 -15.71875,15.71875 53.44355,53.44336 -15.71873,15.71873 -59.73087,-59.73104 31.4373,-31.4373 -15.71873,-15.71855 -31.43732,-31.4373 -15.71854,15.71855 -15.71875,15.71875 -15.71877,15.71857 31.43752,31.4373 -6.2875,6.2875 -31.4373,-31.43732 -15.71875,15.71855 -15.71855,15.71875 z m 31.4373,2.1e-4 15.71875,-15.71873 15.71855,15.71875 -15.71853,15.71852 z m 53.44357,-53.44355 15.71852,-15.71855 15.71875,15.71857 -15.71873,15.71873 z m -84.88087,160.33046 53.44355,53.44334 15.71855,15.71875 100.59961,-100.59939 -15.71877,-15.71875 -15.71875,-15.71877 -15.71855,-15.71855 -78.59334,78.59335 15.71875,15.71855 62.87459,-62.87458 15.71855,15.71875 -69.16209,69.1621 -53.44335,-53.44355 z m 75.44958,75.44957 31.43731,31.43732 15.71875,15.71855 69.1621,-69.16212 -15.71853,-15.71852 -31.4375,-31.4375 -15.71857,15.71873 31.43732,31.43733 -37.7248,37.7248 -31.43731,-31.43734 z m 28.69349,-28.69349 11.78891,11.78894 11.78891,-11.78892 -11.78893,-11.78891 z m 56.18735,-56.18735 31.43732,31.43732 -9.43125,9.43125 15.71877,15.71852 25.14978,-25.14979 -15.71853,-15.71853 -31.43732,-31.43752 z m -48.76743,78.63281 11.78831,11.7883 11.78889,-11.78891 -11.78831,-11.7883 z m 14.93264,-14.93266 11.78831,11.7883 11.78913,-11.78891 -11.7883,-11.7885 z m 87.27816,-85.70622 15.71875,-15.71873 15.71856,15.71877 -15.71854,15.71855 z"
     style="fill:#ffffff;fill-opacity:0.05;stroke:none;stroke-width:1.85842;stroke-linejoin:round;stroke-miterlimit:10.7;paint-order:fill markers stroke"
     id="path8" />
  <path
     d="m -300.22635,702.62462 15.71854,15.71875 31.43732,-31.43732 15.71873,15.71855 -31.4373,31.43732 15.71855,15.71875 31.43732,-31.43732 15.71873,-15.71873 -47.15605,-47.15605 -15.71855,15.71873 z m 53.44334,-53.44355 31.4373,31.43748 15.71875,15.71857 31.43728,-31.43728 6.2875,6.2875 -62.87458,62.87458 15.71855,15.71873 62.87457,-62.87458 15.71875,-15.71875 -22.00623,-22.00602 6.2875,-6.28748 128.893127,128.8929 15.7185674,-15.71857 31.4375206,-31.43726 -15.71875,-15.71875 -31.437318,-31.43732 -15.71875,15.71875 -15.718548,15.71855 -6.28748,-6.28748 15.718528,-15.71855 15.71877,-15.71875 -69.162095,-69.16209 -15.718772,15.71875 53.443549,53.44334 -15.71875,15.71873 -59.730829,-59.73102 31.437302,-31.4373 -15.718772,-15.71857 -31.4373,-31.4373 -15.71854,15.71857 -15.71873,15.71873 -15.71877,15.71857 31.43748,31.4373 -6.28748,6.2875 -31.4373,-31.4373 -15.71875,15.71855 -15.71853,15.71873 z m 31.43732,2.1e-4 15.71871,-15.71873 15.71855,15.71873 -15.71853,15.71852 z m 53.44353,-53.44355 15.71854,-15.71855 15.71873,15.71855 -15.71873,15.71875 z m -84.88085,160.33044 53.44355,53.44334 15.71855,15.71875 100.599591,-100.59939 -15.71877,-15.71875 -15.718731,-15.71875 -15.71857,-15.71855 -78.59332,78.59333 15.71875,15.71857 62.87457,-62.87458 15.71855,15.71873 -69.16207,69.16208 -53.44335,-53.44353 z m 75.44958,75.44957 31.43731,31.43732 15.71873,15.71855 69.162119,-69.16212 -15.718527,-15.71852 -31.437502,-31.4375 -15.71857,15.71873 31.437301,31.43731 -37.724801,37.7248 -31.43729,-31.43732 z m 28.69349,-28.69347 11.78891,11.78891 11.78891,-11.78889 -11.78891,-11.78893 z m 56.187351,-56.18735 31.437298,31.43732 -9.43123,9.43123 15.71875,15.71852 25.149778,-25.14977 -15.718528,-15.71853 -31.437318,-31.43752 z m -48.767451,78.63277 11.78831,11.7883 11.78891,-11.78889 -11.78831,-11.7883 z m 14.93266,-14.93264 11.78831,11.7883 11.789109,-11.78893 -11.788299,-11.7885 z m 87.278157,-85.7062 15.71873,-15.71873 15.7185674,15.71875 -15.7185474,15.71855 z"
     style="fill:#ffffff;fill-opacity:0.05;stroke:none;stroke-width:1.85842;stroke-linejoin:round;stroke-miterlimit:10.7;paint-order:fill markers stroke"
     id="path9" />
  <path
     d="m 61.303074,724.63105 15.718548,15.71877 31.437318,-31.43732 15.71873,15.71855 -31.437298,31.4373 15.718548,15.71877 31.43732,-31.43732 15.71875,-15.71875 -47.15605,-47.15605 -15.718548,15.71875 z m 53.443366,-53.44357 31.4373,31.4375 15.71875,15.71857 31.43728,-31.43727 6.2875,6.2875 -62.87458,62.87457 15.71853,15.71875 62.87459,-62.8746 15.71875,-15.71875 -22.00625,-22.00604 6.2875,-6.28748 128.89313,128.89294 15.71856,-15.71857 31.4375,-31.4373 -15.71873,-15.71875 -31.43731,-31.4373 -15.71875,15.71875 -15.71855,15.71853 -6.28748,-6.28748 15.71853,-15.71855 15.71877,-15.71875 -69.1621,-69.16209 -15.71877,15.71877 53.44355,53.44332 -15.71873,15.71875 -59.73085,-59.73104 31.4373,-31.4373 -15.71877,-15.71855 -31.4373,-31.4373 -15.71854,15.71855 -15.71873,15.71875 -15.71877,15.71857 31.43747,31.4373 -6.28747,6.28748 -31.4373,-31.4373 -15.71875,15.71857 -15.71853,15.71871 z m 31.4373,2.3e-4 15.71873,-15.71873 15.71855,15.71873 -15.71853,15.71852 z m 53.44355,-53.44355 15.71852,-15.71855 15.71875,15.71855 -15.71875,15.71875 z m -84.88087,160.33046 53.44355,53.44333 15.71855,15.71877 100.59959,-100.59942 -15.71875,-15.71875 -15.71875,-15.71873 -15.71855,-15.71857 -78.59334,78.59335 15.71877,15.71855 62.87457,-62.87458 15.71855,15.71873 -69.16209,69.1621 -53.44333,-53.44355 z m 75.4496,75.44958 31.43729,31.43731 15.71875,15.71853 69.16212,-69.16211 -15.71855,-15.71853 -31.4375,-31.43752 -15.71855,15.71875 31.4373,31.43732 -37.72482,37.72479 -31.43729,-31.43729 z m 28.69347,-28.69349 11.78893,11.78893 11.78891,-11.78893 -11.78891,-11.78892 z m 56.18735,-56.18736 31.43732,31.43732 -9.43123,9.43123 15.71875,15.71853 25.14978,-25.14978 -15.71855,-15.71855 -31.4373,-31.4375 z m -48.76745,78.63279 11.7883,11.78831 11.78892,-11.78892 -11.78831,-11.7883 z m 14.93266,-14.93266 11.78831,11.7883 11.78913,-11.78893 -11.78831,-11.7885 z m 87.27816,-85.70618 15.71875,-15.71875 15.71854,15.71875 -15.71852,15.71855 z"
     style="fill:#ffffff;fill-opacity:0.05;stroke:none;stroke-width:1.85842;stroke-linejoin:round;stroke-miterlimit:10.7;paint-order:fill markers stroke"
     id="path10" />
  <path
     d="m 231.06479,554.86936 15.71854,15.71875 31.43732,-31.43732 15.71875,15.71857 -31.43732,31.4373 15.71855,15.71875 31.43732,-31.43732 15.71873,-15.71873 -47.15603,-47.15605 -15.71857,15.71873 z m 53.44334,-53.44357 31.43732,31.43752 15.71873,15.71855 31.4373,-31.4373 6.2875,6.2875 -62.8746,62.8746 15.71857,15.71875 62.87457,-62.8746 15.71877,-15.71875 -22.00627,-22.00606 6.2875,-6.28748 128.89315,128.89294 15.71856,-15.71857 31.4375,-31.4373 -15.71875,-15.71873 -31.43731,-31.43732 -15.71875,15.71875 -15.71855,15.71853 -6.28748,-6.28746 15.71855,-15.71855 15.71875,-15.71875 -69.1621,-69.16211 -15.71877,15.71877 53.44357,53.44334 -15.71875,15.71873 -59.73085,-59.73104 31.4373,-31.4373 -15.71875,-15.71853 -31.43732,-31.43732 -15.71854,15.71855 -15.71875,15.71875 -15.71875,15.71857 31.4375,31.43732 -6.28748,6.28748 -31.43732,-31.43732 -15.71875,15.71857 -15.71855,15.71873 z m 31.43732,2.1e-4 15.71873,-15.71873 15.71855,15.71875 -15.71853,15.71854 z m 53.44355,-53.44355 15.71852,-15.71855 15.71877,15.71857 -15.71875,15.71873 z m -84.88087,160.33046 53.44355,53.44334 15.71857,15.71878 100.59959,-100.59942 -15.71875,-15.71875 -15.71877,-15.71875 -15.71855,-15.71857 -78.59334,78.59335 15.71875,15.71857 62.87459,-62.8746 15.71855,15.71875 -69.16207,69.1621 -53.44337,-53.44355 z m 75.44958,75.44957 31.43733,31.43734 15.71873,15.71853 69.16212,-69.1621 -15.71855,-15.71854 -31.4375,-31.4375 -15.71857,15.71875 31.43732,31.43732 -37.72478,37.72479 -31.43733,-31.43732 z m 28.69349,-28.69347 11.78891,11.78892 11.78891,-11.78892 -11.78891,-11.78891 z m 56.18735,-56.18737 31.43734,31.43732 -9.43125,9.43127 15.71875,15.71852 25.1498,-25.14979 -15.71855,-15.71855 -31.43732,-31.4375 z m -48.76743,78.63281 11.78831,11.7883 11.78891,-11.78891 -11.78831,-11.7883 z m 14.93266,-14.93266 11.78831,11.7883 11.78911,-11.78891 -11.7883,-11.7885 z m 87.27814,-85.7062 15.71875,-15.71875 15.71856,15.71877 -15.71854,15.71855 z"
     style="fill:#ffffff;fill-opacity:0.05;stroke:none;stroke-width:1.85842;stroke-linejoin:round;stroke-miterlimit:10.7;paint-order:fill markers stroke"
     id="path11" />
  <path
     d="m -108.45845,894.39256 15.718563,15.71875 31.437298,-31.43732 15.71875,15.71855 -31.437318,31.43732 15.718548,15.71875 31.437318,-31.43732 15.71875,-15.71873 -47.156068,-47.15605 -15.718528,15.71873 z m 53.443341,-53.44355 31.437298,31.43748 15.7187698,15.71857 31.4372972,-31.4373 6.2875,6.2875 -62.874595,62.8746 15.718548,15.71873 62.874575,-62.8746 15.71877,-15.71875 -22.00623,-22.00602 6.28748,-6.28748 128.893126,128.89292 15.71856,-15.71857 31.43753,-31.43728 -15.71875,-15.71875 -31.43732,-31.43732 -15.71875,15.71877 -15.71855,15.71853 -6.28748,-6.28748 15.71855,-15.71855 15.71875,-15.71875 -69.162098,-69.16209 -15.71875,15.71875 53.443528,53.44334 -15.71873,15.71873 -59.730846,-59.73102 31.437298,-31.4373 -15.71875,-15.71855 -31.437298,-31.4373 -15.718568,15.71855 -15.718729,15.71875 -15.7187705,15.71857 31.4374995,31.4373 -6.2875,6.28748 -31.4372972,-31.4373 -15.7187498,15.71855 -15.718548,15.71875 z m 31.437318,1.9e-4 15.7187498,-15.71873 15.7185274,15.71873 -15.7185274,15.71854 z m 53.443547,-53.44355 15.718548,-15.71853 15.71875,15.71853 -15.71875,15.71875 z M -55.015089,947.83611 -1.5715615,1001.2795 14.146986,1016.9982 114.7466,916.39879 99.027852,900.68004 83.309102,884.96131 67.590554,869.24274 l -78.593345,78.59335 15.7187498,15.71857 62.8745952,-62.8746 15.718528,15.71873 -69.162096,69.1621 -53.443325,-53.44353 z m 75.449575,75.44959 31.437298,31.4373 15.71875,15.7185 69.162116,-69.1621 -15.71853,-15.71849 -31.437518,-31.4375 -15.718568,15.71873 31.437316,31.43736 -37.724796,37.7248 -31.437318,-31.4374 z m 28.69347,-28.69349 11.788931,11.78889 11.788911,-11.78889 -11.788931,-11.78891 z m 56.187374,-56.18737 31.43732,31.43732 -9.43127,9.43125 15.71877,15.71852 25.14978,-25.14979 -15.71853,-15.71853 -31.43732,-31.43752 z m -48.767448,78.63276 11.788304,11.7883 11.78889,-11.7889 -11.788304,-11.7883 z m 14.93264,-14.9326 11.788325,11.7883 11.789113,-11.7889 -11.788304,-11.78854 z m 87.278178,-85.70621 15.71875,-15.71875 15.71854,15.71875 -15.71854,15.71855 z"
     style="fill:#ffffff;fill-opacity:0.05;stroke:none;stroke-width:1.85842;stroke-linejoin:round;stroke-miterlimit:10.7;paint-order:fill markers stroke"
     id="path12" />
  <path
     d="M 17.290635,1.5719923 33.009183,17.290742 64.446501,-14.146576 80.16523,1.5719721 48.727913,33.00927 64.44648,48.72804 95.883798,17.290722 111.60253,1.5719721 64.44648,-45.584076 48.727933,-29.865326 Z m 53.443345,-53.4435683 31.4373,31.4375 15.71875,15.7185481 31.4373,-31.4372981 6.2875,6.2875 -62.874579,62.874596 15.718529,15.71875 62.87459,-62.874596 15.71875,-15.71875 -22.00623,-22.006047 6.28748,-6.28748 128.89313,128.89292 15.71856,-15.718568 31.4375,-31.437297 -15.71873,-15.7187299 -31.43731,-31.4373181 -15.71875,15.7187501 -15.71855,15.7185477 -6.28748,-6.2874797 15.71853,-15.7185481 15.71877,-15.71875 -69.1621,-69.162095 -15.71875,15.71875 53.44353,53.443345 -15.71873,15.71873 -59.73085,-59.731027 31.4373,-31.437297 -15.71877,-15.71857 -31.43728,-31.43728 -15.71856,15.71855 -15.71873,15.71873 -15.71877,15.71857 31.4375,31.437297 -6.2875,6.2875 -31.4373,-31.437298 -15.71875,15.718548 -15.71855,15.71875 z m 31.43732,2.03e-4 15.71873,-15.71875 15.71855,15.71875 -15.71855,15.718547 z m 53.44355,-53.443547 15.71854,-15.71855 15.71873,15.71855 -15.71873,15.718729 z M 70.73398,55.01554 124.17751,108.45887 139.89608,124.17764 240.49567,23.578222 224.77692,7.8594721 209.05819,-7.8592779 193.33962,-23.577826 114.74628,55.01552 130.46503,70.734067 193.33962,7.8594721 209.05817,23.578222 139.89608,92.740317 86.45273,39.29677 Z m 75.44958,75.44958 31.43731,31.43731 15.71873,15.71853 69.16212,-69.16212 -15.71855,-15.718523 -31.4375,-31.43752 -15.71855,15.71875 31.4373,31.437323 -37.7248,37.72479 -31.43729,-31.43732 z m 28.69349,-28.6935 11.78891,11.78894 11.78891,-11.78892 -11.78891,-11.788926 z m 56.18735,-56.18735 31.43732,31.437297 -9.43125,9.43125 15.71875,15.718523 25.1498,-25.149793 L 278.22047,61.30302 246.78317,29.8655 Z m -48.76745,78.63279 11.78831,11.78831 11.78891,-11.78892 -11.78831,-11.7883 z m 14.93266,-14.93266 11.78831,11.7883 11.78911,-11.78891 -11.7883,-11.788503 z M 284.50779,23.578202 300.22652,7.8594721 315.94506,23.578222 300.22654,39.296749 Z"
     style="fill:#ffffff;fill-opacity:0.05;stroke:none;stroke-width:1.85842;stroke-linejoin:round;stroke-miterlimit:10.7;paint-order:fill markers stroke"
     id="path13" />
  <path
     d="m 209.05852,193.33967 15.71856,15.71877 31.4373,-31.43732 15.71875,15.71853 -31.43732,31.43732 15.71855,15.71877 31.43732,-31.43732 15.71875,-15.71875 -47.15605,-47.15605 -15.71855,15.71873 z m 53.44336,-53.44355 31.4373,31.4375 15.71875,15.71855 31.4373,-31.4373 6.2875,6.2875 -62.8746,62.8746 15.71855,15.71873 62.87459,-62.87458 15.71875,-15.71877 -22.00623,-22.00603 6.28748,-6.28748 128.89313,128.89293 15.71856,-15.71857 31.43752,-31.43728 -15.71875,-15.71875 -31.43729,-31.4373 -15.71877,15.71875 -15.71853,15.71855 -6.2875,-6.2875 15.71855,-15.71855 15.71875,-15.71875 -69.1621,-69.162093 -15.71875,15.718773 53.44355,53.44332 -15.71875,15.71875 -59.73085,-59.73105 31.4373,-31.437293 -15.71875,-15.718548 -31.4373,-31.437297 -15.71854,15.718547 -15.71875,15.71875 -15.71877,15.718568 31.4375,31.437293 -6.28748,6.28748 -31.4373,-31.437293 -15.71877,15.718563 -15.71853,15.71873 z m 31.4373,2e-4 15.71875,-15.71875 15.71855,15.71875 -15.71855,15.71853 z m 53.44357,-53.443543 15.71852,-15.718548 15.71875,15.718548 -15.71875,15.718733 z m -84.88087,160.330463 53.44353,53.44332 15.71855,15.71875 100.59961,-100.59939 -15.71875,-15.71875 -15.71875,-15.71875 -15.71855,-15.71855 -78.59334,78.59335 15.71875,15.71855 62.87459,-62.8746 15.71855,15.71875 -69.16209,69.1621 -53.44335,-53.44355 z m 75.44958,75.44957 31.43729,31.4373 15.71875,15.71855 69.16212,-69.16212 -15.71853,-15.71852 -31.43752,-31.4375 -15.71857,15.71873 31.43732,31.43731 -37.7248,37.7248 -31.43731,-31.43732 z m 28.69349,-28.69349 11.78891,11.78891 11.78891,-11.78889 -11.78893,-11.78893 z m 56.18735,-56.18737 31.43732,31.43732 -9.43125,9.43125 15.71875,15.71852 25.1498,-25.14979 -15.71853,-15.71853 -31.43734,-31.43752 z m -48.76745,78.63281 11.78831,11.7883 11.78891,-11.78891 -11.78831,-11.7883 z m 14.93266,-14.93266 11.78831,11.7883 11.78911,-11.78891 -11.7883,-11.7885 z m 87.27816,-85.7062 15.71875,-15.71873 15.71854,15.71875 -15.71852,15.71853 z"
     style="fill:#ffffff;fill-opacity:0.05;stroke:none;stroke-width:1.85842;stroke-linejoin:round;stroke-miterlimit:10.7;paint-order:fill markers stroke"
     id="path14" />
  <path
     d="m 400.82644,385.10761 15.71856,15.71875 31.43732,-31.43732 15.71873,15.71855 -31.43732,31.43732 15.71857,15.71875 31.43732,-31.43732 15.71873,-15.71875 -47.15605,-47.15605 -15.71855,15.71875 z m 53.44336,-53.44357 31.4373,31.4375 15.71875,15.71855 31.43728,-31.43728 6.28752,6.2875 -62.8746,62.87458 15.71855,15.71875 62.87457,-62.87458 15.71875,-15.71877 -22.00621,-22.00602 6.28748,-6.28748 128.89313,128.89292 15.71856,-15.71857 31.43752,-31.43728 -15.71875,-15.71875 -31.43731,-31.4373 -15.71875,15.71875 -15.71855,15.71853 -6.28748,-6.28748 15.71853,-15.71855 15.71877,-15.71875 -69.1621,-69.16209 -15.71875,15.71877 53.44353,53.44332 -15.71873,15.71875 -59.73085,-59.73104 31.4373,-31.4373 -15.71875,-15.71855 -31.4373,-31.4373 -15.71856,15.71855 -15.71873,15.71875 -15.71877,15.71857 31.4375,31.4373 -6.2875,6.28748 -31.4373,-31.4373 -15.71875,15.71857 -15.71853,15.71871 z m 31.43732,2e-4 15.71871,-15.71872 15.71855,15.71875 -15.71853,15.71852 z m 53.44353,-53.44354 15.71854,-15.71853 15.71873,15.71853 -15.71873,15.71875 z m -84.88085,160.33046 53.44353,53.44334 15.71857,15.71875 100.59959,-100.59939 -15.71877,-15.71877 -15.71873,-15.71873 -15.71855,-15.71855 -78.59334,78.59333 15.71875,15.71855 62.87459,-62.87458 15.71853,15.71875 -69.16207,69.16208 -53.44335,-53.44355 z m 75.44958,75.44957 31.43731,31.43732 15.71873,15.71853 69.16212,-69.1621 -15.71853,-15.71852 -31.4375,-31.43752 -15.71857,15.71875 31.4373,31.43729 -37.7248,37.7248 -31.43729,-31.4373 z m 28.69349,-28.69349 11.78891,11.78893 11.78891,-11.78891 -11.78891,-11.78891 z m 56.18735,-56.18735 31.4373,31.43732 -9.43123,9.43125 15.71875,15.7185 25.14978,-25.14977 -15.71853,-15.71853 -31.43732,-31.43752 z m -48.76745,78.63279 11.78831,11.7883 11.78891,-11.78891 -11.78831,-11.7883 z m 14.93266,-14.93266 11.78831,11.7883 11.78911,-11.78891 -11.7883,-11.7885 z m 87.27816,-85.70618 15.71873,-15.71875 15.71856,15.71877 -15.71854,15.71853 z"
     style="fill:#ffffff;fill-opacity:0.05;stroke:none;stroke-width:1.85842;stroke-linejoin:round;stroke-miterlimit:10.7;paint-order:fill markers stroke"
     id="path15" />
  <path
     d="m 356.81404,-337.95143 15.71854,15.71875 31.43734,-31.43732 15.71873,15.71855 -31.43732,31.43732 15.71855,15.71875 31.43734,-31.43732 15.71871,-15.71873 -47.15605,-47.15605 -15.71853,15.71873 z m 53.44334,-53.44355 31.4373,31.4375 15.71875,15.71855 31.4373,-31.43728 6.2875,6.2875 -62.87458,62.87456 15.71855,15.71875 62.87455,-62.87458 15.71878,-15.71875 -22.00625,-22.00604 6.28747,-6.28748 128.89315,128.89294 15.71857,-15.71857 31.4375,-31.4373 -15.71875,-15.71875 -31.4373,-31.4373 -15.71877,15.71875 -15.71853,15.71853 -6.2875,-6.28748 15.71855,-15.71855 15.71875,-15.71875 -69.1621,-69.16209 -15.71875,15.71877 53.44355,53.44332 -15.71875,15.71875 -59.73084,-59.73104 31.43729,-31.4373 -15.71875,-15.71855 -31.43729,-31.4373 -15.71855,15.71855 -15.71875,15.71875 -15.71877,15.71857 31.4375,31.4373 -6.28748,6.28748 -31.4373,-31.4373 -15.71875,15.71857 -15.71853,15.71873 z m 31.43732,2.1e-4 15.71873,-15.71873 15.71853,15.71873 -15.71853,15.71852 z m 53.44353,-53.44355 15.71855,-15.71853 15.71875,15.71853 -15.71875,15.71875 z m -84.88085,160.33044 53.44355,53.44334 15.71855,15.71875 100.59959,-100.59939 -15.71875,-15.71875 -15.71875,-15.71873 -15.71854,-15.71857 -78.59333,78.59333 15.71875,15.71855 62.87458,-62.87456 15.71852,15.71873 -69.16207,69.1621 -53.44333,-53.44355 z m 75.4496,75.44959 31.4373,31.4373 15.71875,15.71855 69.16209,-69.16212 -15.71853,-15.71852 -31.43752,-31.43752 -15.71854,15.71875 31.43729,31.43731 -37.72479,37.7248 -31.4373,-31.43732 z m 28.69349,-28.69351 11.78891,11.78893 11.78889,-11.78889 -11.78891,-11.78893 z m 56.18733,-56.18733 31.43732,31.43732 -9.43125,9.43123 15.71875,15.71852 25.1498,-25.14977 -15.71855,-15.71855 -31.43732,-31.4375 z m -48.76743,78.63277 11.78831,11.7883 11.78891,-11.78891 -11.78831,-11.7883 z m 14.93266,-14.93266 11.78831,11.7883 11.78911,-11.78891 -11.7883,-11.78848 z m 87.27814,-85.70616 15.71875,-15.71875 15.71855,15.71875 -15.71855,15.71855 z"
     style="fill:#ffffff;fill-opacity:0.05;stroke:none;stroke-width:1.85842;stroke-linejoin:round;stroke-miterlimit:10.7;paint-order:fill markers stroke"
     id="path16" />
  <path
     d="m 187.05233,-168.18972 15.71854,15.71875 31.43732,-31.4373 15.71875,15.71853 -31.43732,31.43732 15.71855,15.71875 31.43732,-31.4373 15.71873,-15.71875 -47.15605,-47.15605 -15.71853,15.71873 z m 53.44334,-53.44355 31.4373,31.4375 15.71877,15.71855 31.43728,-31.4373 6.28752,6.2875 -62.8746,62.8746 15.71853,15.71875 62.87459,-62.8746 15.71875,-15.71877 -22.00623,-22.00602 6.28748,-6.2875 128.89315,128.892937 15.71857,-15.718567 31.43747,-31.4373 -15.71872,-15.71875 -31.43732,-31.4373 -15.71875,15.71875 -15.71855,15.71855 -6.28748,-6.2875 15.71855,-15.71853 15.71875,-15.71877 -69.1621,-69.16207 -15.71875,15.71875 53.44353,53.44332 -15.71873,15.71875 -59.73085,-59.73104 31.4373,-31.43728 -15.71875,-15.71857 -31.4373,-31.4373 -15.71854,15.71857 -15.71875,15.71873 -15.71877,15.71857 31.4375,31.4373 -6.2875,6.28748 -31.43728,-31.43728 -15.71877,15.71855 -15.71853,15.71873 z m 31.43732,2.1e-4 15.71875,-15.71875 15.71853,15.71875 -15.71853,15.71852 z m 53.44355,-53.44355 15.71854,-15.71855 15.71873,15.71855 -15.71873,15.71873 z m -84.88087,160.33044 53.44355,53.443344 15.71855,15.71875 100.59961,-100.599394 -15.71877,-15.71877 -15.71873,-15.71873 -15.71855,-15.71855 -78.59336,78.59335 15.71877,15.718547 62.87459,-62.874597 15.71853,15.71875 -69.16209,69.162097 -53.44333,-53.443547 z m 75.4496,75.449594 31.43729,31.4372981 15.71875,15.7185477 69.1621,-69.1621158 -15.71853,-15.718527 -31.43752,-31.437517 -15.71855,15.718747 31.4373,31.437317 -37.7248,37.724798 -31.43729,-31.437318 z m 28.69347,-28.69349 11.78893,11.788911 11.78889,-11.788891 -11.78891,-11.788931 z m 56.18737,-56.187374 31.4373,31.437317 -9.43125,9.43125 15.71875,15.718527 25.1498,-25.149797 -15.71853,-15.718527 -31.43732,-31.43752 z m -48.76747,78.63281 11.78831,11.788304 11.78891,-11.78891 -11.78831,-11.788304 z m 14.93266,-14.93266 11.78831,11.788304 11.78913,-11.788931 -11.7883,-11.788486 z m 87.27818,-85.7062 15.71873,-15.71875 15.71857,15.71877 -15.71855,15.71853 z"
     style="fill:#ffffff;fill-opacity:0.05;stroke:none;stroke-width:1.85842;stroke-linejoin:round;stroke-miterlimit:10.7;paint-order:fill markers stroke"
     id="path17" />
  <path
     d="m 548.58175,-146.18351 15.71855,15.71875 31.43732,-31.43732 15.71873,15.71855 -31.43732,31.4373 15.71857,15.718769 31.4373,-31.437319 15.71875,-15.71873 -47.15605,-47.15607 -15.71855,15.71875 z m 53.44335,-53.44357 31.4373,31.4375 15.71875,15.71855 31.43728,-31.43728 6.2875,6.2875 -62.87458,62.87458 15.71855,15.718748 62.87457,-62.874578 15.71875,-15.71875 -22.00623,-22.00604 6.28748,-6.28748 128.89313,128.892916 15.71858,-15.718568 31.43748,-31.437298 -15.71873,-15.71873 -31.43731,-31.43732 -15.71875,15.71875 -15.71855,15.71855 -6.28748,-6.28748 15.71855,-15.71855 15.71875,-15.71875 -69.1621,-69.16209 -15.71875,15.71875 53.44353,53.44334 -15.71873,15.71873 -59.73085,-59.73102 31.4373,-31.4373 -15.71875,-15.71857 -31.4373,-31.4373 -15.71856,15.71857 -15.71873,15.71873 -15.71877,15.71857 31.4375,31.4373 -6.2875,6.2875 -31.4373,-31.4373 -15.71875,15.71855 -15.71853,15.71873 z m 31.43732,2.1e-4 15.71871,-15.71873 15.71855,15.71875 -15.71853,15.71852 z m 53.44353,-53.44353 15.71854,-15.71855 15.71873,15.71855 -15.71873,15.71873 z m -84.88085,160.330439 53.44353,53.443325 15.71857,15.71877 100.59957,-100.599394 -15.71875,-15.71875 -15.71873,-15.71875 -15.71857,-15.71855 -78.59332,78.593328 15.71875,15.718548 62.87457,-62.874576 15.71855,15.71875 -69.16207,69.162076 -53.44335,-53.443526 z m 75.44958,75.449575 31.43731,31.437318 15.71873,15.718527 69.16212,-69.162095 -15.71855,-15.718548 -31.4375,-31.4375 -15.71857,15.71875 31.43732,31.437298 -37.7248,37.7247974 -31.43731,-31.4372974 z m 28.69349,-28.693491 11.78891,11.788931 11.78891,-11.78891 -11.78893,-11.788911 z m 56.18735,-56.187333 31.4373,31.437296 -9.43123,9.43125 15.71875,15.718528 25.14978,-25.149778 -15.71855,-15.718547 -31.4373,-31.437519 z m -48.76745,78.63277 11.7883,11.788304 11.78892,-11.788911 -11.78831,-11.788304 z m 14.93266,-14.932661 11.78831,11.788304 11.78911,-11.788911 -11.78831,-11.788506 z m 87.27816,-85.706179 15.71873,-15.71873 15.71856,15.71875 -15.71854,15.71855 z"
     style="fill:#ffffff;fill-opacity:0.05;stroke:none;stroke-width:1.85842;stroke-linejoin:round;stroke-miterlimit:10.7;paint-order:fill markers stroke"
     id="path18" />
  <path
     d="m 378.82023,23.577979 15.71854,15.71875 31.43732,-31.4373176 15.71873,15.7185476 -31.4373,31.437318 15.71855,15.71875 31.43732,-31.437318 15.71873,-15.71873 -47.15605,-47.156047 -15.71855,15.7187294 z m 53.44334,-53.443547 31.4373,31.4374794 15.71875,15.7185676 31.4373,-31.437297 6.2875,6.2874996 -62.8746,62.8745954 15.71855,15.71873 62.87459,-62.8745956 15.71875,-15.71875 -22.00623,-22.0060274 6.2875,-6.28748 128.89311,128.892921 15.71857,-15.718568 31.43754,-31.437278 -15.71877,-15.71875 -31.4373,-31.4373176 -15.71875,15.7187706 -15.71855,15.718527 -6.28748,-6.28748 15.71853,-15.7185474 15.71875,-15.71875 -69.16208,-69.1620956 -15.71877,15.71875 53.44355,53.4433456 -15.71875,15.7187298 -59.73083,-59.7310274 31.43728,-31.437298 -15.71875,-15.718547 -31.4373,-31.437299 -15.71854,15.71855 -15.71875,15.718749 -15.71877,15.718567 31.4375,31.437298 -6.28748,6.28748 -31.4373,-31.437298 -15.71875,15.718548 -15.71853,15.71873 z m 31.43732,1.82e-4 15.71873,-15.71873 15.71855,15.71875 -15.71853,15.718507 z m 53.44355,-53.443548 15.71854,-15.718527 15.71873,15.718527 -15.71873,15.71875 z M 432.26357,77.021527 485.70712,130.46487 501.42567,146.18362 602.02526,45.584209 586.30651,29.865459 570.58778,14.146729 554.86921,-1.5718386 476.27587,77.021507 491.99462,92.740075 554.86921,29.865479 570.58776,45.584209 501.42567,114.7463 447.98232,61.302777 Z m 75.44958,75.449573 31.43731,31.43732 15.71875,15.71855 69.16212,-69.16214 -15.71853,-15.71853 -31.43752,-31.437496 -15.71857,15.71875 31.4373,31.437316 -37.7248,37.7248 -31.43729,-31.43732 z m 28.69349,-28.69347 11.78891,11.78891 11.78891,-11.78889 -11.78891,-11.78893 z m 56.18737,-56.187373 31.4373,31.437318 -9.43123,9.431225 15.71875,15.71853 25.14978,-25.149776 -15.71853,-15.718527 -31.43732,-31.43752 z m -48.76747,78.632793 11.78831,11.7883 11.78891,-11.78889 -11.78831,-11.7883 z m 14.93266,-14.93264 11.78831,11.7883 11.78911,-11.78893 -11.7883,-11.78851 z m 87.27818,-85.706201 15.71873,-15.71875 15.71855,15.71875 -15.71853,15.718548 z"
     style="fill:#ffffff;fill-opacity:0.05;stroke:none;stroke-width:1.85842;stroke-linejoin:round;stroke-miterlimit:10.7;paint-order:fill markers stroke"
     id="path19" />
  <path
     d="m 740.34965,45.584411 15.71855,15.718771 31.43732,-31.437318 15.71875,15.718547 -31.43732,31.437298 15.71855,15.71877 31.43732,-31.437318 15.71875,-15.71875 -47.15605,-47.1560473 -15.71855,15.7187503 z m 53.44337,-53.4435676 31.4373,31.4374996 15.71875,15.718568 31.43728,-31.4372973 6.28752,6.2875203 -62.8746,62.874575 15.71853,15.71875 62.87459,-62.874595 15.71875,-15.71875 -22.00623,-22.006048 6.28748,-6.28748 128.89311,128.892924 15.7186,-15.718571 31.4375,-31.437298 -15.7187,-15.71873 -31.4374,-31.437318 -15.7187,15.71875 -15.71854,15.718548 -6.2875,-6.28748 15.71854,-15.718547 15.7188,-15.71875 -69.16214,-69.162096 -15.71875,15.71875 53.44353,53.443346 -15.71873,15.718729 -59.73085,-59.731027 31.4373,-31.437298 -15.71875,-15.718547 -31.4373,-31.437301 -15.71854,15.718551 -15.71875,15.71875 -15.71877,15.718568 31.4375,31.437297 -6.2875,6.28748 -31.43728,-31.437298 -15.71877,15.718548 -15.71853,15.71873 z m 31.43732,2.023e-4 15.71873,-15.7187097 15.71853,15.71873 -15.71853,15.7185274 z m 53.44353,-53.4435277 15.71854,-15.718547 15.71873,15.718547 -15.71873,15.71873 z M 793.793,99.027979 847.23655,152.4713 862.9551,168.19007 963.55471,67.590661 947.83594,51.871911 932.11721,36.153161 916.39866,20.434614 837.80532,99.027959 853.52407,114.74651 916.39866,51.871932 932.11719,67.590661 862.9551,136.75276 809.51177,83.309209 Z m 75.4496,75.449571 31.43729,31.43732 15.71875,15.71853 69.16212,-69.16212 -15.71853,-15.71854 -31.43752,-31.4375 -15.71855,15.71875 31.4373,31.43731 -37.7248,37.7248 -31.43731,-31.4373 z M 897.93607,145.78406 909.725,157.573 921.51391,145.78406 909.725,133.99515 Z m 56.18737,-56.187351 31.4373,31.437301 -9.43123,9.43125 15.71875,15.71852 25.14974,-25.14977 -15.7185,-15.71855 -31.43731,-31.437501 z m -48.76745,78.632791 11.78831,11.7883 11.78889,-11.78891 -11.78831,-11.7883 z m 14.93264,-14.93266 11.78831,11.7883 11.78913,-11.78893 -11.7883,-11.7885 z m 87.27817,-85.706199 15.7187,-15.71873 15.7186,15.71875 -15.7185,15.718548 z"
     style="fill:#ffffff;fill-opacity:0.05;stroke:none;stroke-width:1.85842;stroke-linejoin:round;stroke-miterlimit:10.7;paint-order:fill markers stroke"
     id="path20" />
  <path
     d="m 570.58815,215.3459 15.71854,15.71875 31.43732,-31.4373 15.71875,15.71853 -31.43732,31.43732 15.71855,15.71875 31.43732,-31.4373 15.71873,-15.71875 -47.15605,-47.15605 -15.71853,15.71873 z m 53.44334,-53.44355 31.4373,31.4375 15.71877,15.71855 31.43728,-31.4373 6.28752,6.2875 -62.8746,62.8746 15.71853,15.71875 62.87459,-62.8746 15.71875,-15.71875 -22.00623,-22.00605 6.2875,-6.28748 128.89313,128.89293 15.71857,-15.71857 31.43752,-31.43728 -15.71875,-15.71875 -31.43732,-31.4373 -15.71875,15.71875 -15.71855,15.71853 -6.28748,-6.28748 15.71853,-15.71853 15.71877,-15.71877 -69.1621,-69.16209 -15.71875,15.71877 53.44353,53.44332 -15.71873,15.71875 -59.73084,-59.73105 31.43729,-31.43729 -15.71877,-15.718551 -31.43727,-31.437298 -15.71857,15.718548 -15.71873,15.71875 -15.71877,15.718571 31.4375,31.43729 -6.2875,6.28748 -31.4373,-31.43729 -15.71875,15.71856 -15.71855,15.71873 z m 31.43732,2e-4 15.71873,-15.71875 15.71855,15.71875 -15.71853,15.71853 z m 53.44355,-53.44356 15.71854,-15.718531 15.71873,15.718551 -15.71873,15.71873 z m -84.88087,160.33046 53.44355,53.44334 15.71855,15.71875 100.59961,-100.59939 -15.71877,-15.71877 -15.71873,-15.71873 -15.71855,-15.71855 -78.59336,78.59335 15.71877,15.71855 62.87459,-62.8746 15.71853,15.71875 -69.16209,69.1621 -53.44333,-53.44355 z m 75.4496,75.44959 31.43729,31.4373 15.71875,15.71855 69.1621,-69.16212 -15.71853,-15.71852 -31.4375,-31.4375 -15.71857,15.71872 31.43732,31.43732 -37.7248,37.7248 -31.43731,-31.43732 z m 28.69347,-28.69349 11.78893,11.78893 11.78889,-11.78891 -11.78891,-11.78893 z m 56.18737,-56.18737 31.4373,31.43732 -9.43125,9.43125 15.71877,15.71852 25.14978,-25.1498 -15.71853,-15.71852 -31.43732,-31.43752 z m -48.76745,78.63281 11.78831,11.7883 11.78889,-11.78891 -11.78831,-11.7883 z m 14.93264,-14.93266 11.78831,11.7883 11.78913,-11.78891 -11.7883,-11.78851 z m 87.27818,-85.7062 15.71873,-15.71875 15.71857,15.71877 -15.71855,15.71853 z"
     style="fill:#ffffff;fill-opacity:0.05;stroke:none;stroke-width:1.85842;stroke-linejoin:round;stroke-miterlimit:10.7;paint-order:fill markers stroke"
     id="path21" />
  <path
     d="m 253.07122,916.39877 15.71854,15.71875 31.43732,-31.4373 15.71873,15.71853 -31.4373,31.43732 15.71855,15.71875 31.43732,-31.4373 15.71873,-15.71875 -47.15605,-47.15605 -15.71855,15.71873 z m 53.44334,-53.44355 31.4373,31.4375 15.71875,15.71855 31.43728,-31.43728 6.2875,6.2875 -62.87458,62.87458 15.71855,15.71873 62.87458,-62.87456 15.71875,-15.71877 -22.00625,-22.00602 6.2875,-6.2875 128.89312,128.89294 15.71857,-15.71857 31.4375,-31.4373 -15.71873,-15.71875 -31.43732,-31.4373 -15.71875,15.71875 -15.71855,15.71855 -6.28748,-6.2875 15.71853,-15.71853 15.71877,-15.71877 -69.1621,-69.16207 -15.71875,15.71875 53.44353,53.44332 -15.71873,15.71875 -59.73084,-59.73104 31.43729,-31.4373 -15.71877,-15.71855 -31.43727,-31.4373 -15.71857,15.71857 -15.71873,15.71873 -15.71877,15.71857 31.4375,31.4373 -6.2875,6.28748 -31.4373,-31.43728 -15.71875,15.71855 -15.71853,15.71873 z m 31.4373,2.1e-4 15.71873,-15.71873 15.71855,15.71875 -15.71853,15.71852 z m 53.44355,-53.44355 15.71855,-15.71853 15.71873,15.71853 -15.71873,15.71875 z m -84.88085,160.33044 53.44355,53.44338 15.71855,15.7187 100.59957,-100.59936 -15.71875,-15.71877 -15.71873,-15.71873 -15.71856,-15.71855 -78.59333,78.59333 15.71875,15.71855 62.87458,-62.87458 15.71854,15.71875 -69.16207,69.16206 -53.44335,-53.44353 z m 75.44958,75.44958 31.43732,31.4373 15.71875,15.7186 69.16209,-69.1622 -15.71855,-15.7185 -31.4375,-31.4375 -15.71854,15.71875 31.43729,31.43735 -37.72479,37.7248 -31.4373,-31.4374 z m 28.69349,-28.6935 11.78891,11.7889 11.78893,-11.7889 -11.78893,-11.7889 z m 56.18733,-56.18733 31.43732,31.43732 -9.43123,9.43121 15.71875,15.7185 25.14978,-25.14973 -15.71855,-15.71853 -31.4373,-31.43752 z m -48.76743,78.63283 11.78831,11.7883 11.78891,-11.7889 -11.78831,-11.7884 z m 14.93266,-14.9327 11.78831,11.7883 11.78911,-11.7889 -11.7883,-11.7885 z m 87.27816,-85.70618 15.71873,-15.71875 15.71855,15.71877 -15.71853,15.71853 z"
     style="fill:#ffffff;fill-opacity:0.05;stroke:none;stroke-width:1.85842;stroke-linejoin:round;stroke-miterlimit:10.7;paint-order:fill markers stroke"
     id="path22" />
  <path
     d="m 422.83289,746.63726 15.71855,15.71877 31.43731,-31.43732 15.71875,15.71855 -31.43729,31.43732 15.71852,15.71873 31.43732,-31.4373 15.71873,-15.71875 -47.15603,-47.15603 -15.71854,15.71873 z m 53.44334,-53.44355 31.43732,31.43752 15.71875,15.71853 31.43728,-31.4373 6.28752,6.2875 -62.8746,62.8746 15.71855,15.71875 62.8746,-62.87458 15.71875,-15.71877 -22.00625,-22.00604 6.28748,-6.28748 128.89314,128.89294 15.71857,-15.71857 31.4375,-31.4373 -15.71873,-15.71875 -31.43734,-31.43732 -15.71875,15.71875 -15.71853,15.71855 -6.28748,-6.28748 15.71853,-15.71853 15.71877,-15.71877 -69.16212,-69.16209 -15.71875,15.71875 53.44355,53.44334 -15.71873,15.71875 -59.73086,-59.73104 31.43729,-31.4373 -15.71875,-15.71855 -31.43729,-31.43732 -15.71855,15.71857 -15.71875,15.71873 -15.71877,15.71857 31.43752,31.43732 -6.2875,6.28748 -31.4373,-31.4373 -15.71877,15.71855 -15.71853,15.71875 z m 31.43732,2.1e-4 15.71875,-15.71875 15.71855,15.71877 -15.71855,15.71852 z m 53.44355,-53.44355 15.71855,-15.71855 15.71875,15.71855 -15.71873,15.71875 z m -84.88087,160.33044 53.44357,53.44337 15.71855,15.71875 100.59959,-100.5994 -15.71875,-15.71877 -15.71875,-15.71875 -15.71854,-15.71855 -78.59337,78.59335 15.71877,15.71855 62.8746,-62.8746 15.71854,15.71877 -69.16209,69.16208 -53.44335,-53.44355 z m 75.4496,75.4496 31.43732,31.43731 15.71875,15.71855 69.16209,-69.16211 -15.71855,-15.71855 -31.43748,-31.43748 -15.71856,15.71873 31.43731,31.43734 -37.72479,37.72479 -31.43732,-31.43733 z m 28.69347,-28.6935 11.78893,11.78894 11.78889,-11.78891 -11.78891,-11.78894 z m 56.18737,-56.18735 31.43732,31.43732 -9.43125,9.43125 15.71875,15.71853 25.1498,-25.1498 -15.71855,-15.71853 -31.4373,-31.43752 z m -48.76745,78.63281 11.78831,11.78831 11.78891,-11.78892 -11.78831,-11.7883 z m 14.93266,-14.93266 11.78831,11.7883 11.78911,-11.78893 -11.7883,-11.7885 z m 87.27816,-85.70622 15.71873,-15.71873 15.71857,15.71877 -15.71853,15.71853 z"
     style="fill:#ffffff;fill-opacity:0.05;stroke:none;stroke-width:1.85842;stroke-linejoin:round;stroke-miterlimit:10.7;paint-order:fill markers stroke"
     id="path23" />
  <path
     d="m 83.309506,1086.1605 15.718548,15.7187 31.437316,-31.4373 15.71873,15.7186 -31.4373,31.4373 15.71855,15.7187 31.43732,-31.4373 15.71873,-15.7187 -47.15605,-47.1561 -15.71855,15.7188 z m 53.443344,-53.4436 31.4373,31.4375 15.71875,15.7186 31.4373,-31.4373 6.2875,6.2875 -62.8746,62.8746 15.71855,15.7187 62.87459,-62.8746 15.71875,-15.7187 -22.00622,-22.0061 6.28747,-6.2875 128.89313,128.893 15.71857,-15.7186 31.4375,-31.4373 -15.71873,-15.7187 -31.43732,-31.4373 -15.71875,15.7187 -15.71855,15.7186 -6.28748,-6.2875 15.71853,-15.7186 15.71877,-15.7187 -69.1621,-69.16211 -15.71875,15.71871 53.44353,53.4434 -15.71873,15.7187 -59.73084,-59.731 31.43729,-31.43733 -15.71877,-15.71855 -31.43727,-31.4373 -15.71857,15.71857 -15.71873,15.71873 -15.71877,15.71857 31.4375,31.43731 -6.2875,6.2875 -31.4373,-31.43731 -15.71875,15.71851 -15.71855,15.7188 z m 31.43732,2e-4 15.71873,-15.7187 15.71855,15.7187 -15.71855,15.7186 z m 53.44355,-53.44353 15.71855,-15.71853 15.71872,15.71853 -15.71872,15.71875 z m -84.88087,160.33043 53.44355,53.4434 15.71855,15.7187 100.59959,-100.5994 -15.71875,-15.7187 -15.71873,-15.7188 -15.71857,-15.7185 -78.59334,78.5933 15.71875,15.7186 62.87459,-62.8746 15.71855,15.7187 -69.16209,69.1621 -53.44335,-53.4435 z m 75.44958,75.4496 31.43731,31.4373 15.71875,15.7186 69.1621,-69.1621 -15.71853,-15.7186 -31.43752,-31.4375 -15.71855,15.7188 31.4373,31.4373 -37.7248,37.7248 -31.43729,-31.4373 z m 28.69349,-28.6935 11.78891,11.7889 11.78891,-11.7888 -11.78891,-11.789 z m 56.18737,-56.1873 31.4373,31.4373 -9.43125,9.4312 15.71875,15.7186 25.1498,-25.1498 -15.71855,-15.7186 -31.4373,-31.4375 z m -48.76747,78.6328 11.78831,11.7883 11.78891,-11.7889 -11.78831,-11.7883 z m 14.93266,-14.9327 11.78831,11.7883 11.78911,-11.7889 -11.7883,-11.7885 z m 87.27818,-85.7062 15.71873,-15.7187 15.71855,15.7187 -15.71853,15.7186 z"
     style="fill:#ffffff;fill-opacity:0.05;stroke:none;stroke-width:1.85842;stroke-linejoin:round;stroke-miterlimit:10.7;paint-order:fill markers stroke"
     id="path24" />
  <path
     d="m 444.83892,1108.1667 15.71856,15.7187 31.4373,-31.4373 15.71875,15.7186 -31.43732,31.4373 15.71857,15.7187 31.4373,-31.4373 15.71875,-15.7187 -47.15605,-47.1561 -15.71855,15.7188 z m 53.44336,-53.4436 31.4373,31.4375 15.71875,15.7186 31.43728,-31.4373 6.2875,6.2875 -62.87458,62.8746 15.71855,15.7187 62.87457,-62.8746 15.71875,-15.7187 -22.00625,-22.0061 6.2875,-6.2874 128.89313,128.8929 15.71856,-15.7186 31.4375,-31.4373 -15.71875,-15.7187 -31.43729,-31.4373 -15.71877,15.7187 -15.71853,15.7186 -6.2875,-6.2875 15.71855,-15.7186 15.71875,-15.7187 -69.1621,-69.1621 -15.71875,15.7187 53.44355,53.4434 -15.71875,15.7187 -59.73085,-59.731 31.4373,-31.4373 -15.71875,-15.71855 -31.4373,-31.4373 -15.71854,15.71855 -15.71875,15.71875 -15.71877,15.71855 31.4375,31.4373 -6.28748,6.2875 -31.4373,-31.4373 -15.71875,15.7185 -15.71853,15.7188 z m 31.4373,2e-4 15.71873,-15.7187 15.71855,15.7187 -15.71853,15.7186 z m 53.44355,-53.4435 15.71852,-15.71855 15.71875,15.71855 -15.71875,15.7187 z m -84.88085,160.3304 53.44353,53.4434 15.71857,15.7187 100.59957,-100.5994 -15.71875,-15.7187 -15.71875,-15.7188 -15.71855,-15.7185 -78.59332,78.5933 15.71875,15.7186 62.87457,-62.8746 15.71853,15.7187 -69.16205,69.1621 -53.44335,-53.4435 z m 75.44958,75.4496 31.43731,31.4373 15.71873,15.7186 69.1621,-69.1621 -15.71853,-15.7186 -31.43752,-31.4375 -15.71855,15.7188 31.43732,31.4373 -37.7248,37.7248 -31.43731,-31.4373 z m 28.69349,-28.6935 11.78891,11.789 11.78891,-11.789 -11.78891,-11.7889 z m 56.18733,-56.1873 31.43732,31.4373 -9.43125,9.4312 15.71877,15.7186 25.14978,-25.1498 -15.71855,-15.7186 -31.43732,-31.4375 z m -48.76743,78.6328 11.78831,11.7883 11.78891,-11.7889 -11.78831,-11.7884 z m 14.93266,-14.9327 11.78831,11.7883 11.78911,-11.7889 -11.7883,-11.7885 z m 87.27814,-85.7062 15.71875,-15.7187 15.71854,15.7187 -15.71854,15.7186 z"
     style="fill:#ffffff;fill-opacity:0.05;stroke:none;stroke-width:1.85842;stroke-linejoin:round;stroke-miterlimit:10.7;paint-order:fill markers stroke"
     id="path25" />
  <path
     d="m 614.60061,938.405 15.71856,15.71875 31.4373,-31.43732 15.71877,15.71857 -31.43732,31.4373 15.71855,15.71875 31.4373,-31.43732 15.71875,-15.71873 -47.15605,-47.15605 -15.71855,15.71873 z m 53.44336,-53.44357 31.4373,31.43752 15.71875,15.71853 31.4373,-31.43728 6.2875,6.2875 -62.8746,62.87458 15.71855,15.71877 62.87459,-62.8746 15.71875,-15.71875 -22.00625,-22.00607 6.28748,-6.28747 128.89317,128.89294 15.71857,-15.71857 31.4375,-31.4373 -15.71875,-15.71873 -31.43732,-31.43734 -15.71877,15.71877 -15.71853,15.71853 -6.28748,-6.28746 15.71855,-15.71855 15.71875,-15.71875 -69.16212,-69.16211 -15.71875,15.71875 53.44355,53.44336 -15.71873,15.71873 -59.73087,-59.73105 31.4373,-31.43729 -15.71873,-15.71855 -31.43732,-31.4373 -15.71854,15.71855 -15.71875,15.71875 -15.71877,15.71857 31.43752,31.4373 -6.2875,6.2875 -31.4373,-31.43732 -15.71875,15.71854 -15.71855,15.71875 z m 31.4373,2e-4 15.71875,-15.71872 15.71855,15.71875 -15.71853,15.71854 z m 53.44357,-53.44354 15.71852,-15.71855 15.71875,15.71857 -15.71873,15.71873 z m -84.88087,160.33046 53.44355,53.44335 15.71855,15.7187 100.59961,-100.59935 -15.71877,-15.71875 -15.71875,-15.71877 -15.71855,-15.71855 -78.59334,78.59335 15.71875,15.71857 62.87459,-62.8746 15.71855,15.71875 -69.16209,69.16205 -53.44335,-53.4435 z m 75.44958,75.44955 31.43731,31.4373 15.71875,15.7186 69.1621,-69.1621 -15.71853,-15.7186 -31.4375,-31.43745 -15.71857,15.71875 31.43732,31.4373 -37.7248,37.7248 -31.43731,-31.4373 z m 28.69349,-28.6935 11.78891,11.789 11.78891,-11.7889 -11.78893,-11.789 z m 56.18735,-56.18732 31.43732,31.43732 -9.43125,9.4312 15.71877,15.7186 25.14978,-25.1498 -15.71853,-15.71855 -31.43732,-31.43752 z m -48.76743,78.63282 11.78831,11.7883 11.78889,-11.7889 -11.78831,-11.7883 z m 14.93264,-14.9327 11.78831,11.7883 11.78913,-11.7889 -11.7883,-11.7885 z m 87.27816,-85.70619 15.71875,-15.71873 15.71857,15.71877 -15.71855,15.71855 z"
     style="fill:#ffffff;fill-opacity:0.05;stroke:none;stroke-width:1.85842;stroke-linejoin:round;stroke-miterlimit:10.7;paint-order:fill markers stroke"
     id="path26" />
  <path
     d="m 275.07741,1277.9282 15.71854,15.7187 31.43732,-31.4373 15.71873,15.7186 -31.4373,31.4373 15.71855,15.7187 31.4373,-31.4373 15.71875,-15.7187 -47.15605,-47.1561 -15.71855,15.7188 z m 53.44334,-53.4436 31.4373,31.4375 15.71875,15.7186 31.4373,-31.4373 6.2875,6.2875 -62.8746,62.8746 15.71855,15.7187 62.87459,-62.8746 15.71875,-15.7187 -22.00622,-22.0061 6.28747,-6.2874 128.89313,128.8929 15.71857,-15.7186 31.43752,-31.4373 -15.71875,-15.7187 -31.4373,-31.4373 -15.71877,15.7187 -15.71853,15.7186 -6.2875,-6.2875 15.71855,-15.7186 15.71875,-15.7187 -69.1621,-69.1621 -15.71875,15.7187 53.44355,53.4434 -15.71875,15.7187 -59.73084,-59.731 31.43729,-31.4373 -15.71875,-15.7186 -31.43729,-31.4373 -15.71855,15.7186 -15.71875,15.7187 -15.71877,15.7186 31.4375,31.4373 -6.28748,6.2875 -31.4373,-31.4373 -15.71877,15.7185 -15.71853,15.7188 z m 31.4373,2e-4 15.71875,-15.7187 15.71855,15.7187 -15.71855,15.7186 z m 53.44357,-53.4435 15.71852,-15.7186 15.71875,15.7186 -15.71875,15.7187 z m -84.88087,160.3304 53.44353,53.4434 15.71857,15.7187 100.59959,-100.5994 -15.71875,-15.7187 -15.71875,-15.7188 -15.71855,-15.7185 -78.59334,78.5933 15.71875,15.7186 62.87459,-62.8746 15.71855,15.7187 -69.16209,69.1621 -53.44335,-53.4435 z m 75.44958,75.4496 31.43731,31.4373 15.71873,15.7186 69.16212,-69.1621 -15.71853,-15.7186 -31.43752,-31.4375 -15.71857,15.7188 31.43732,31.4373 -37.7248,37.7248 -31.43731,-31.4373 z m 28.69349,-28.6935 11.78891,11.7889 11.78891,-11.7888 -11.78893,-11.789 z m 56.18735,-56.1873 31.43732,31.4373 -9.43125,9.4312 15.71875,15.7186 25.1498,-25.1498 -15.71853,-15.7186 -31.43732,-31.4375 z m -48.76745,78.6327 11.78831,11.7884 11.78891,-11.7889 -11.78831,-11.7883 z m 14.93266,-14.9326 11.78831,11.7883 11.78911,-11.7889 -11.7883,-11.7885 z m 87.27816,-85.7062 15.71875,-15.7187 15.71855,15.7187 -15.71853,15.7186 z"
     style="fill:#ffffff;fill-opacity:0.05;stroke:none;stroke-width:1.85842;stroke-linejoin:round;stroke-miterlimit:10.7;paint-order:fill markers stroke"
     id="path27" />
  <path
     d="m 592.59438,576.87555 15.71856,15.71875 31.43732,-31.43732 15.71873,15.71855 -31.43732,31.4373 15.71857,15.71877 31.43732,-31.43732 15.71873,-15.71875 -47.15605,-47.15605 -15.71855,15.71875 z m 53.44336,-53.44357 31.4373,31.4375 15.71875,15.71855 31.4373,-31.4373 6.2875,6.2875 -62.8746,62.8746 15.71855,15.71875 62.87459,-62.8746 15.71875,-15.71875 -22.00625,-22.00604 6.2875,-6.28748 128.89313,128.89292 15.71857,-15.71857 31.4375,-31.4373 -15.71873,-15.71873 -31.43732,-31.43732 -15.71875,15.71875 -15.71855,15.71855 -6.28748,-6.28748 15.71853,-15.71855 15.71877,-15.71875 -69.1621,-69.16209 -15.71875,15.71875 53.44353,53.44334 -15.71873,15.71873 -59.73085,-59.73102 31.4373,-31.4373 -15.71877,-15.71857 -31.43728,-31.4373 -15.71856,15.71857 -15.71873,15.71873 -15.71877,15.71857 31.43748,31.4373 -6.28748,6.2875 -31.4373,-31.4373 -15.71875,15.71855 -15.71855,15.71875 z m 31.43732,2.1e-4 15.71873,-15.71875 15.71855,15.71875 -15.71855,15.71854 z m 53.44355,-53.44355 15.71854,-15.71855 15.71873,15.71855 -15.71873,15.71873 z m -84.88087,160.33046 53.44353,53.44332 15.71857,15.71877 100.59959,-100.59941 -15.71875,-15.71875 -15.71873,-15.71875 -15.71857,-15.71855 -78.59334,78.59335 15.71875,15.71855 62.87459,-62.8746 15.71855,15.71875 -69.16209,69.1621 -53.44335,-53.44355 z m 75.44958,75.44957 31.43731,31.43732 15.71873,15.71853 69.16212,-69.16212 -15.71855,-15.71852 -31.4375,-31.43752 -15.71855,15.71877 31.4373,31.43729 -37.7248,37.7248 -31.43729,-31.4373 z m 28.69349,-28.69349 11.78891,11.78893 11.78891,-11.78891 -11.78891,-11.78891 z m 56.18735,-56.18735 31.43732,31.4373 -9.43125,9.43125 15.71875,15.71852 25.1498,-25.14977 -15.71855,-15.71855 -31.4373,-31.43752 z m -48.76745,78.63279 11.78831,11.7883 11.78891,-11.78891 -11.78831,-11.7883 z m 14.93266,-14.93266 11.78831,11.7883 11.78911,-11.78891 -11.7883,-11.7885 z m 87.27816,-85.7062 15.71875,-15.71873 15.71855,15.71875 -15.71853,15.71855 z"
     style="fill:#ffffff;fill-opacity:0.05;stroke:none;stroke-width:1.85842;stroke-linejoin:round;stroke-miterlimit:10.7;paint-order:fill markers stroke"
     id="path28" />
  <path
     d="m 784.36228,768.64323 15.71856,15.71877 31.4373,-31.43732 15.71875,15.71853 -31.43732,31.43732 15.71855,15.71877 31.43732,-31.43732 15.71875,-15.71875 -47.15605,-47.15605 -15.71855,15.71875 z m 53.44336,-53.44355 31.4373,31.4375 15.71875,15.71855 31.4373,-31.4373 6.2875,6.2875 -62.8746,62.8746 15.71855,15.71875 62.87459,-62.8746 15.71875,-15.71875 -22.00622,-22.00603 6.28747,-6.2875 128.89317,128.89292 15.7185,-15.71856 31.4375,-31.43726 -15.7187,-15.71877 -31.4373,-31.4373 -15.7188,15.71875 -15.7185,15.71855 -6.2875,-6.2875 15.7185,-15.71853 15.7188,-15.71877 -69.1621,-69.16209 -15.71875,15.71877 53.44355,53.44332 -15.7187,15.71875 -59.73089,-59.73105 31.43729,-31.43729 -15.71875,-15.71855 -31.43729,-31.4373 -15.71855,15.71855 -15.71875,15.71875 -15.71877,15.71857 31.4375,31.43729 -6.28748,6.28748 -31.4373,-31.43729 -15.71877,15.71856 -15.71853,15.71873 z m 31.4373,2e-4 15.71875,-15.71875 15.71855,15.71875 -15.71855,15.71853 z m 53.44357,-53.44354 15.71852,-15.71855 15.71875,15.71855 -15.71875,15.71873 z m -84.88087,160.33046 53.44353,53.44332 15.71855,15.71877 100.59958,-100.59941 -15.71872,-15.71875 -15.71875,-15.71875 -15.71855,-15.71855 -78.59334,78.59335 15.71875,15.71854 62.87459,-62.87459 15.71855,15.71875 -69.16209,69.16209 -53.44335,-53.44354 z m 75.44958,75.44957 31.43729,31.43732 15.71875,15.71853 69.16214,-69.16212 -15.7185,-15.71853 -31.43757,-31.4375 -15.71857,15.71873 31.43732,31.43732 -37.7248,37.7248 -31.43731,-31.43732 z m 28.69349,-28.69349 11.78891,11.78893 11.78891,-11.78891 -11.78893,-11.78893 z m 56.18735,-56.18735 31.43734,31.43729 -9.4313,9.43125 15.7188,15.71853 25.1498,-25.1498 -15.7185,-15.7185 -31.4374,-31.43754 z m -48.76745,78.63279 11.78831,11.7883 11.78891,-11.78891 -11.78831,-11.7883 z m 14.93266,-14.93266 11.78831,11.7883 11.78911,-11.78891 -11.7883,-11.78851 z m 87.27813,-85.7062 15.7188,-15.71873 15.7185,15.71875 -15.7185,15.71853 z"
     style="fill:#ffffff;fill-opacity:0.05;stroke:none;stroke-width:1.85842;stroke-linejoin:round;stroke-miterlimit:10.7;paint-order:fill markers stroke"
     id="path29" />
  <path
     d="m 932.1178,237.35213 15.71855,15.71875 31.43733,-31.43732 15.71873,15.71855 -31.43731,31.43732 15.71854,15.71875 31.43736,-31.43732 15.7187,-15.71873 -47.15606,-47.15605 -15.71852,15.71873 z m 53.44334,-53.44355 31.43726,31.4375 15.7188,15.71855 31.4373,-31.43728 6.2875,6.2875 -62.8746,62.87456 15.7186,15.71875 62.8745,-62.87458 15.7188,-15.71875 -22.0063,-22.00605 6.2875,-6.28748 128.8932,128.89295 15.7185,-15.71857 31.4375,-31.4373 -15.7187,-15.71875 -31.4373,-31.4373 -15.7188,15.71875 -15.7185,15.71853 -6.2875,-6.28748 15.7185,-15.71855 15.7188,-15.71875 -69.1621,-69.16209 -15.7188,15.71877 53.4436,53.44332 -15.7188,15.71875 -59.7308,-59.73105 31.4373,-31.43729 -15.7188,-15.71855 -31.4373,-31.437299 -15.7185,15.718548 -15.7188,15.718751 -15.7187,15.71857 31.4375,31.43729 -6.2875,6.28748 -31.4373,-31.43729 -15.7188,15.71856 -15.7185,15.71871 z m 31.43736,2e-4 15.7187,-15.71873 15.7185,15.71873 -15.7185,15.71853 z m 53.4435,-53.44354 15.7185,-15.71853 15.7188,15.71853 -15.7188,15.71875 z m -84.88086,160.33044 53.44356,53.44334 15.7185,15.71875 100.5996,-100.59939 -15.7187,-15.71875 -15.7188,-15.71873 -15.7185,-15.71857 -78.5933,78.59333 15.7187,15.71854 62.8746,-62.87455 15.7185,15.71873 -69.1621,69.16209 -53.4433,-53.44354 z m 75.44956,75.44959 31.4373,31.4373 15.7188,15.71855 69.1621,-69.16212 -15.7185,-15.71853 -31.4376,-31.43752 -15.7185,15.71875 31.4373,31.43732 -37.7248,37.7248 -31.4373,-31.43732 z m 28.6935,-28.69351 11.7889,11.78893 11.7889,-11.78889 -11.7889,-11.78893 z m 56.1874,-56.18733 31.4373,31.43732 -9.4313,9.43122 15.7188,15.71853 25.1498,-25.14978 -15.7186,-15.71854 -31.4373,-31.4375 z m -48.7675,78.63277 11.7883,11.7883 11.7889,-11.78891 -11.7883,-11.7883 z m 14.9327,-14.93266 11.7883,11.7883 11.7891,-11.78891 -11.7883,-11.78849 z m 87.2781,-85.70616 15.7188,-15.71875 15.7185,15.71875 -15.7185,15.71855 z"
     style="fill:#ffffff;fill-opacity:0.05;stroke:none;stroke-width:1.85842;stroke-linejoin:round;stroke-miterlimit:10.7;paint-order:fill markers stroke"
     id="path30" />
  <path
     d="m 762.35609,407.11384 15.71854,15.71875 31.43732,-31.4373 15.71873,15.71853 -31.4373,31.43732 15.71855,15.71875 31.43732,-31.4373 15.71873,-15.71875 -47.15605,-47.15605 -15.71853,15.71873 z m 53.44334,-53.44355 31.4373,31.4375 15.71875,15.71855 31.4373,-31.4373 6.2875,6.2875 -62.87458,62.8746 15.71853,15.71873 62.8746,-62.87458 15.71875,-15.71877 -22.00623,-22.00603 6.28748,-6.2875 128.89317,128.89295 15.7185,-15.71857 31.4375,-31.4373 -15.7187,-15.71875 -31.4373,-31.4373 -15.7188,15.71875 -15.7185,15.71855 -6.2875,-6.2875 15.7185,-15.71853 15.7188,-15.71877 -69.16211,-69.16207 -15.71875,15.71875 53.44356,53.44332 -15.71876,15.71875 -59.73084,-59.73105 31.43729,-31.43729 -15.71875,-15.71855 -31.43729,-31.4373 -15.71857,15.71857 -15.71873,15.71873 -15.71877,15.71857 31.4375,31.43729 -6.2875,6.28748 -31.4373,-31.43727 -15.71875,15.71855 -15.71853,15.71872 z m 31.43732,2e-4 15.71873,-15.71875 15.71855,15.71875 -15.71855,15.71853 z m 53.44355,-53.44356 15.71855,-15.71853 15.71873,15.71853 -15.71873,15.71875 z m -84.88087,160.33046 53.44355,53.44334 15.71855,15.71875 100.59961,-100.59939 -15.71877,-15.71877 -15.71873,-15.71873 -15.71856,-15.71857 -78.59335,78.59337 15.71877,15.71855 62.87458,-62.8746 15.71854,15.71875 -69.16209,69.1621 -53.44333,-53.44355 z m 75.4496,75.44959 31.4373,31.4373 15.71875,15.71855 69.16212,-69.16212 -15.71856,-15.71852 -31.43752,-31.43752 -15.71854,15.71875 31.43729,31.43731 -37.72479,37.7248 -31.4373,-31.43732 z m 28.69347,-28.69349 11.78893,11.78891 11.78889,-11.78889 -11.78891,-11.78893 z m 56.18737,-56.18737 31.43733,31.43732 -9.43128,9.43125 15.71878,15.71852 25.1498,-25.14979 -15.7186,-15.71853 -31.43728,-31.43752 z m -48.76747,78.63281 11.78831,11.7883 11.78891,-11.78891 -11.78831,-11.7883 z m 14.93266,-14.93266 11.78831,11.7883 11.78913,-11.78893 -11.7883,-11.78848 z m 87.27814,-85.7062 15.7188,-15.71875 15.7185,15.71877 -15.7185,15.71853 z"
     style="fill:#ffffff;fill-opacity:0.05;stroke:none;stroke-width:1.85842;stroke-linejoin:round;stroke-miterlimit:10.7;paint-order:fill markers stroke"
     id="path31" />
  <path
     d="m 1123.8855,429.12005 15.7186,15.71875 31.4373,-31.43732 15.7187,15.71855 -31.4373,31.4373 15.7186,15.71877 31.4373,-31.43732 15.7187,-15.71873 -47.156,-47.15607 -15.7186,15.71875 z m 53.4434,-53.44357 31.4373,31.4375 15.7187,15.71855 31.4373,-31.43728 6.2875,6.2875 -62.8746,62.87458 15.7186,15.71875 62.8745,-62.87458 15.7188,-15.71875 -22.0062,-22.00605 6.2874,-6.2875 128.8932,128.89295 15.7185,-15.71857 31.4375,-31.4373 -15.7187,-15.71873 -31.4373,-31.43732 -15.7188,15.71875 -15.7185,15.71855 -6.2875,-6.28748 15.7185,-15.71855 15.7188,-15.71875 -69.1621,-69.16209 -15.7187,15.71875 53.4435,53.44334 -15.7188,15.71873 -59.7308,-59.73103 31.4373,-31.43729 -15.7187,-15.71857 -31.4373,-31.4373 -15.7186,15.71857 -15.7187,15.71873 -15.7188,15.71857 31.4375,31.43729 -6.2875,6.2875 -31.4373,-31.43729 -15.7188,15.71854 -15.7185,15.71873 z m 31.4373,2e-4 15.7187,-15.71873 15.7185,15.71875 -15.7185,15.71853 z m 53.4435,-53.44352 15.7186,-15.71855 15.7187,15.71855 -15.7187,15.71873 z m -84.8808,160.33044 53.4435,53.44332 15.7186,15.71877 100.5995,-100.59939 -15.7187,-15.71875 -15.7187,-15.71875 -15.7186,-15.71855 -78.5933,78.59333 15.7187,15.71854 62.8746,-62.87457 15.7185,15.71875 -69.162,69.16207 -53.4434,-53.44352 z m 75.4495,75.44957 31.4374,31.43732 15.7187,15.71853 69.1621,-69.1621 -15.7185,-15.71855 -31.4375,-31.4375 -15.7186,15.71875 31.4373,31.4373 -37.7248,37.7248 -31.4373,-31.4373 z m 28.6935,-28.69347 11.7889,11.78891 11.7889,-11.78891 -11.7889,-11.78891 z m 56.1874,-56.18735 31.4373,31.4373 -9.4313,9.43125 15.7188,15.71852 25.1498,-25.14977 -15.7186,-15.71855 -31.4373,-31.43752 z m -48.7675,78.63277 11.7883,11.7883 11.7889,-11.78891 -11.7883,-11.7883 z m 14.9327,-14.93266 11.7883,11.7883 11.7891,-11.78891 -11.7883,-11.78851 z m 87.2781,-85.70618 15.7188,-15.71873 15.7185,15.71875 -15.7185,15.71855 z"
     style="fill:#ffffff;fill-opacity:0.05;stroke:none;stroke-width:1.85842;stroke-linejoin:round;stroke-miterlimit:10.7;paint-order:fill markers stroke"
     id="path32" />
  <path
     d="m 954.12399,598.88154 15.71854,15.71875 31.43737,-31.4373 15.7187,15.71853 -31.43732,31.43732 15.71852,15.71875 31.4374,-31.43732 15.7187,-15.71873 -47.1561,-47.15605 -15.71852,15.71873 z m 53.44331,-53.44355 31.4373,31.43748 15.7188,15.71857 31.4373,-31.4373 6.2875,6.2875 -62.8746,62.8746 15.7185,15.71873 62.8746,-62.87458 15.7188,-15.71877 -22.0063,-22.00603 6.2875,-6.28748 128.8931,128.89292 15.7186,-15.71856 31.4376,-31.43728 -15.7188,-15.71875 -31.4373,-31.43732 -15.7188,15.71877 -15.7185,15.71853 -6.2875,-6.28748 15.7185,-15.71855 15.7188,-15.71875 -69.1621,-69.16209 -15.7188,15.71875 53.4436,53.44334 -15.7188,15.71875 -59.7308,-59.73105 31.4373,-31.43729 -15.7188,-15.71855 -31.4373,-31.4373 -15.7185,15.71855 -15.7188,15.71875 -15.7187,15.71857 31.4375,31.43729 -6.2875,6.28748 -31.4373,-31.43729 -15.7187,15.71856 -15.7186,15.71871 z m 31.4374,1.8e-4 15.7187,-15.71873 15.7185,15.71875 -15.7185,15.71853 z m 53.4435,-53.44355 15.7185,-15.71852 15.7188,15.71852 -15.7188,15.71875 z m -84.8809,160.33047 53.4436,53.44334 15.7185,15.71875 100.5996,-100.59939 -15.7187,-15.71877 -15.7188,-15.71873 -15.7185,-15.71857 -78.5934,78.59335 15.7188,15.71856 62.8746,-62.87459 15.7185,15.71875 -69.1621,69.16207 -53.4433,-53.44352 z m 75.4496,75.44957 31.4373,31.43732 15.7188,15.71855 69.1621,-69.16214 -15.7185,-15.71853 -31.4376,-31.4375 -15.7185,15.71875 31.4373,31.43732 -37.7248,37.7248 -31.4373,-31.43732 z m 28.6935,-28.69347 11.7889,11.78891 11.7889,-11.78889 -11.7889,-11.78893 z m 56.1874,-56.18737 31.4373,31.43731 -9.4313,9.43123 15.7188,15.71853 25.1498,-25.14978 -15.7186,-15.71852 -31.4373,-31.43752 z m -48.7675,78.63281 11.7883,11.7883 11.7889,-11.78891 -11.7883,-11.7883 z m 14.9327,-14.93266 11.7883,11.7883 11.7891,-11.78893 -11.7883,-11.78851 z m 87.2781,-85.7062 15.7188,-15.71875 15.7185,15.71877 -15.7185,15.71853 z"
     style="fill:#ffffff;fill-opacity:0.05;stroke:none;stroke-width:1.85842;stroke-linejoin:round;stroke-miterlimit:10.7;paint-order:fill markers stroke"
     id="path33" />
</svg>
